Coordinates
version=1
nRows=24
nColumns=24
inDegrees=yes

Units are S.I. units (second, meters, Newtons, ...)
Angles are in degrees.

endheader
time	pelvis_tilt	pelvis_list	pelvis_rotation	pelvis_tx	pelvis_ty	pelvis_tz	hip_flexion_r	hip_adduction_r	hip_rotation_r	knee_angle_r	ankle_angle_r	subtalar_angle_r	mtp_angle_r	hip_flexion_l	hip_adduction_l	hip_rotation_l	knee_angle_l	ankle_angle_l	subtalar_angle_l	mtp_angle_l	lumbar_extension	lumbar_bending	lumbar_rotation
      1.11216667	     -3.56990250	      2.28311879	     -2.93408398	      0.01870302	      1.03482205	      0.29244415	    -14.02139718	     -2.00183450	     -1.64558572	    -12.27139155	     19.39239037	      4.92560233	      2.06154163	     29.25134532	      0.42423993	     -2.06686207	     -3.34136200	     10.73540970	      4.73949769	      0.85314018	    -14.19463854	     -1.35282086	      3.05670448
      1.11633333	     -3.55784167	      2.29868263	     -3.06965284	      0.02477116	      1.03404254	      0.29221512	    -14.18392786	     -2.12179919	     -1.67560985	    -12.64431446	     19.16216400	      5.03800550	      5.95011061	     29.24022070	      0.43860231	     -1.98701060	     -3.83222474	     10.48139269	      4.46467191	      1.48555137	    -14.18514378	     -1.49037179	      3.01267059
      1.12050000	     -3.55932342	      2.31221279	     -3.19985361	      0.03087177	      1.03328183	      0.29199343	    -14.33046035	     -2.23248960	     -1.65116192	    -13.02779647	     18.93450904	      5.11589450	      5.95823288	     29.26531825	      0.44590189	     -2.00672650	     -4.39838562	     10.24555837	      4.38987060	      1.48351279	    -14.16915336	     -1.64037206	      3.01951800
      1.12466667	     -3.56272149	      2.37116002	     -3.34548844	      0.03705139	      1.03254941	      0.29176489	    -14.42646183	     -2.41659509	     -1.78058453	    -13.51490087	     18.79987243	      5.49170336	      6.07484516	     29.26817761	      0.49389256	     -2.06340623	     -4.93887478	      9.92201987	      4.26706207	      1.50430941	    -14.10116696	     -1.88121095	      3.11282958
      1.12883333	     -3.56550045	      2.40725286	     -3.47608566	      0.04324095	      1.03188673	      0.29153018	    -14.53938597	     -2.55998001	     -1.79128863	    -13.96164311	     18.49695057	      5.60083878	      6.12722020	     29.27656460	      0.52345826	     -2.11426414	     -5.50985859	      9.56997160	      4.15776921	      1.51037183	    -14.04858935	     -2.06512152	      3.09362012
      1.13300000	     -3.59237540	      2.46501502	     -3.58497527	      0.04944045	      1.03120619	      0.29122635	    -14.59194295	     -2.73445976	     -1.90210256	    -14.47989986	     18.22967355	      5.85931680	      8.70661472	     29.30074636	      0.59094519	     -2.06016792	     -6.06500876	      9.09523441	      3.86064859	      2.07901696	    -13.97948608	     -2.28343105	      3.09549548
      1.13716667	     -3.57341368	      2.52168660	     -3.69703011	      0.05566594	      1.03067315	      0.29094539	    -14.69860231	     -2.90300611	     -1.94065478	    -14.98348043	     17.87107503	      5.95943014	      8.72474032	     29.29679677	      0.64783837	     -2.15993103	     -6.68094797	      8.68933929	      3.77561940	      2.07481065	    -13.94942999	     -2.50037002	      3.06490081
      1.14133333	     -3.59240520	      2.60992745	     -3.79377522	      0.06191327	      1.03010748	      0.29061073	    -14.72064255	     -3.11569087	     -2.08771098	    -15.58286819	     17.61831466	      6.29182280	      8.86630677	     29.33455886	      0.74247160	     -2.22638466	     -7.30326165	      8.21458346	      3.61566737	      2.08731631	    -13.88659149	     -2.77096486	      3.03622586
      1.14550000	     -3.58547434	      2.66855938	     -3.87892655	      0.06815754	      1.02967099	      0.29026191	    -14.77758472	     -3.28378813	     -2.14145787	    -16.15463663	     17.17244501	      6.37197039	      8.92305277	     29.35307938	      0.81028798	     -2.31497621	     -7.95061268	      7.74095838	      3.51340952	      2.08593345	    -13.84384038	     -2.97964108	      2.99460202
      1.14966667	     -3.62417411	      2.76656493	     -3.94807416	      0.07442265	      1.02918091	      0.28984648	    -14.73183979	     -3.50873820	     -2.32515463	    -16.84485944	     16.86155764	      6.70512944	      9.24256629	     29.42279908	      0.92553400	     -2.35577171	     -8.60546644	      7.22643673	      3.28950650	      2.11244165	    -13.75106669	     -3.25180746	      2.92112488
      1.15383333	     -3.58634291	      2.85703137	     -4.00614563	      0.08066892	      1.02891707	      0.28942374	    -14.77765907	     -3.71860977	     -2.43790255	    -17.48918740	     16.30778162	      6.82080657	     12.75259963	     29.39533947	      1.04622948	     -2.34279512	     -9.22823851	      6.67224114	      2.98573824	      2.43979412	    -13.76703187	     -3.51326053	      2.81808181
      1.15800000	     -3.64525958	      2.93593887	     -4.04501601	      0.08695475	      1.02853813	      0.28896228	    -14.69093110	     -3.90528207	     -2.53913128	    -18.20254126	     15.78088727	      6.92577757	     12.80283557	     29.52057548	      1.13902346	     -2.46219169	     -9.96671668	      6.22198264	      2.97917693	      2.43297923	    -13.64640596	     -3.76026251	      2.76274667
      1.16216667	     -3.68436743	      3.02543175	     -4.07548635	      0.09320833	      1.02823418	      0.28844072	    -14.57957753	     -4.11661184	     -2.70876470	    -19.00659266	     15.31175774	      7.12673356	     12.95700998	     29.63225860	      1.25042349	     -2.56502385	    -10.72439677	      5.80203863	      2.89700615	      2.42578247	    -13.55241638	     -3.99705320	      2.66317561
      1.16633333	     -3.69842379	      3.11289950	     -4.08495211	      0.09944940	      1.02805491	      0.28787648	    -14.48535374	     -4.32199997	     -2.86713404	    -19.81107185	     14.68360344	      7.24761957	     15.77368412	     29.70626297	      1.37616987	     -2.59049844	    -11.45992266	      5.35845156	      2.73056771	      2.36666099	    -13.50230458	     -4.23356148	      2.54613061
      1.17050000	     -3.72991638	      3.21469297	     -4.08911238	      0.10571311	      1.02789580	      0.28730297	    -14.33811551	     -4.54335844	     -3.03149585	    -20.68917331	     14.10045695	      7.39427284	     15.82978125	     29.81066362	      1.50823529	     -2.67442463	    -12.23152441	      5.00472368	      2.68076931	      2.35440690	    -13.42412795	     -4.49860265	      2.44263456
      1.17466667	     -3.74312402	      3.31147850	     -4.07279177	      0.11195395	      1.02784024	      0.28668444	    -14.19397725	     -4.75541004	     -3.18493396	    -21.58768326	     13.43330052	      7.51894416	     15.90148235	     29.89219291	      1.64851467	     -2.71283905	    -12.99823294	      4.66756773	      2.61902269	      2.33944802	    -13.37978909	     -4.76438619	      2.33614622
      1.17883333	     -3.78019387	      3.41172389	     -4.04482260	      0.11818916	      1.02779216	      0.28602028	    -13.98483289	     -4.97533747	     -3.36234107	    -22.56166735	     12.76874482	      7.65888021	     16.01310443	     29.99972488	      1.79670560	     -2.73710020	    -13.77140112	      4.37015479	      2.54322429	      2.31912129	    -13.30354208	     -5.01990765	      2.20614939
      1.18300000	     -3.76701617	      3.51192504	     -3.97155314	      0.12435731	      1.02785999	      0.28520450	    -13.79611844	     -5.20853334	     -3.65339395	    -23.59900364	     12.08061812	      7.88081535	     18.42481002	     30.04329097	      1.98838206	     -2.63291608	    -14.51599855	      4.10087897	      2.33606543	      1.96012578	    -13.30572213	     -5.20759317	      1.86998526
      1.18716667	     -3.83657058	      3.60818001	     -3.93856183	      0.13056328	      1.02786652	      0.28452684	    -13.48835631	     -5.42029458	     -3.77224726	    -24.67574544	     11.37062862	      7.90577790	     18.52647335	     30.18568847	      2.12450912	     -2.70402205	    -15.30405266	      3.89085296	      2.34883108	      1.93450067	    -13.18378054	     -5.48267245	      1.87577289
      1.19133333	     -3.86023152	      3.70875448	     -3.87062128	      0.13672632	      1.02799266	      0.28374880	    -13.20132102	     -5.64449463	     -3.96744534	    -25.80552257	     10.62354032	      8.00271198	     18.65795023	     30.25498064	      2.29885073	     -2.67828370	    -16.03601795	      3.70734463	      2.30539203	      1.90001047	    -13.13187259	     -5.71931865	      1.73562825
      1.19550000	     -3.88598197	      3.80647492	     -3.78635590	      0.14285607	      1.02815985	      0.28292993	    -12.88430313	     -5.86567577	     -4.16102926	    -26.98035597	      9.86001583	      8.09155732	     18.84272072	     30.31573943	      2.48204878	     -2.61959992	    -16.74703528	      3.55004280	      2.24367420	      1.84858740	    -13.08446585	     -5.95215511	      1.56634339
      1.19966667	     -3.89891146	      3.90530698	     -3.69097666	      0.14895265	      1.02839536	      0.28208801	    -12.55268190	     -6.08769761	     -4.35344228	    -28.19820895	      9.06382518	      8.14526387	     19.04750477	     30.34318894	      2.67650447	     -2.54073275	    -17.41702706	      3.41634906	      2.17868333	      1.78531741	    -13.05535646	     -6.18238905	      1.39919021
      1.20383333	     -3.88219175	      4.00116817	     -3.59078205	      0.15500694	      1.02873962	      0.28124534	    -12.23197962	     -6.30351579	     -4.51569717	    -29.43488094	      8.20592613	      8.16286104	     19.14601079	     30.31796144	      2.87481650	     -2.45062313	    -18.04745924	      3.33162067	      2.14505799	      1.74925691	    -13.08253408	     -6.43694160	      1.28457165
      1.20800000	     -3.91780075	      4.09855225	     -3.47406619	      0.16101994	      1.02900478	      0.28033854	    -11.81003164	     -6.52647961	     -4.70874557	    -30.75758858	      7.42910020	      8.18438613	     19.36480956	     30.33886724	      3.08474209	     -2.33901544	    -18.65431675	      3.22702860	      2.03995129	      1.66174352	    -13.02733030	     -6.63740941	      1.06571767
